<svg width="512" height="512" viewBox="0 0 512 512" fill="none" xmlns="http://www.w3.org/2000/svg">
  <defs>
    <linearGradient id="gradient" x1="0%" y1="0%" x2="100%" y2="100%">
      <stop offset="0%" style="stop-color:#a78bfa;stop-opacity:1" />
      <stop offset="50%" style="stop-color:#22d3ee;stop-opacity:1" />
      <stop offset="100%" style="stop-color:#34d399;stop-opacity:1" />
    </linearGradient>
  </defs>
  
  <!-- Background Circle -->
  <circle cx="256" cy="256" r="240" fill="url(#gradient)" stroke="#ffffff" stroke-width="8"/>
  
  <!-- Certificate Document -->
  <rect x="120" y="140" width="272" height="200" rx="12" fill="#ffffff" stroke="#0f172a" stroke-width="4"/>
  
  <!-- Certificate Border -->
  <rect x="140" y="160" width="232" height="160" rx="8" fill="none" stroke="#a78bfa" stroke-width="3"/>
  
  <!-- Certificate Title -->
  <text x="256" y="190" text-anchor="middle" font-family="Arial, sans-serif" font-size="18" font-weight="bold" fill="#0f172a">CERTIFICATE</text>
  
  <!-- Decorative Line -->
  <line x1="160" y1="210" x2="352" y2="210" stroke="#22d3ee" stroke-width="2"/>
  
  <!-- Participant Name -->
  <text x="256" y="240" text-anchor="middle" font-family="Arial, sans-serif" font-size="16" font-weight="bold" fill="#0f172a">EventEye</text>
  
  <!-- Event Text -->
  <text x="256" y="270" text-anchor="middle" font-family="Arial, sans-serif" font-size="12" fill="#0f172a">Certificate Management</text>
  
  <!-- Decorative Stars -->
  <circle cx="180" cy="280" r="4" fill="#34d399"/>
  <circle cx="332" cy="280" r="4" fill="#34d399"/>
  <circle cx="200" cy="300" r="3" fill="#fbbf24"/>
  <circle cx="312" cy="300" r="3" fill="#fbbf24"/>
  
  <!-- QR Code Placeholder -->
  <rect x="220" y="320" width="32" height="32" fill="#0f172a" rx="4"/>
  <rect x="224" y="324" width="4" height="4" fill="#ffffff"/>
  <rect x="232" y="324" width="4" height="4" fill="#ffffff"/>
  <rect x="240" y="324" width="4" height="4" fill="#ffffff"/>
  <rect x="248" y="324" width="4" height="4" fill="#ffffff"/>
  <rect x="224" y="332" width="4" height="4" fill="#ffffff"/>
  <rect x="232" y="332" width="4" height="4" fill="#0f172a"/>
  <rect x="240" y="332" width="4" height="4" fill="#ffffff"/>
  <rect x="248" y="332" width="4" height="4" fill="#0f172a"/>
  <rect x="224" y="340" width="4" height="4" fill="#0f172a"/>
  <rect x="232" y="340" width="4" height="4" fill="#ffffff"/>
  <rect x="240" y="340" width="4" height="4" fill="#0f172a"/>
  <rect x="248" y="340" width="4" height="4" fill="#ffffff"/>
  <rect x="224" y="348" width="4" height="4" fill="#ffffff"/>
  <rect x="232" y="348" width="4" height="4" fill="#0f172a"/>
  <rect x="240" y="348" width="4" height="4" fill="#ffffff"/>
  <rect x="248" y="348" width="4" height="4" fill="#0f172a"/>
</svg>
